<?xml version="1.0" encoding="utf-8"?>
<!-- Generator: Adobe Illustrator 27.5.0, SVG Export Plug-In . SVG Version: 6.00 Build 0)  -->
<svg version="1.1" xmlns="http://www.w3.org/2000/svg" xmlns:xlink="http://www.w3.org/1999/xlink" x="0px" y="0px"
	 viewBox="0 0 750 500" style="enable-background:new 0 0 750 500;" xml:space="preserve">
<g id="Background_Complete">
	<g>
		<g>
			<path style="fill:#F5F5F5;" d="M143.507,342.553c7.382-4.659,10.074-10.697,11.291-19.341c1.217-8.644-1.547-17.768-7.355-24.284
				c-4.842-5.433-11.681-9.17-15.178-15.552c-3.728-6.802-3.17-15.811-8.525-21.421c-3.679-3.855-9.263-5.099-13.821-7.859
				c-3.72-2.252-6.719-5.496-10.091-8.241c-3.372-2.746-7.417-5.083-11.764-4.959c-6.557,0.187-11.94,6.368-12.554,12.898
				c-0.614,6.53,2.748,12.961,7.546,17.433c3.48,3.244,7.832,5.806,10.015,10.033c4.1,7.94-1.058,18.469,3.379,26.225
				c3.24,5.664,11.043,8.666,11.845,15.143c0.295,2.382-0.486,4.76-0.579,7.158c-0.291,7.5,6.437,13.866,13.753,15.538
				C128.786,346.996,136.424,345.033,143.507,342.553"/>
			<g>
				<path style="fill:#E0E0E0;" d="M100.997,267.899c-0.022,0.022,0.236,0.336,0.746,0.914c0.578,0.638,1.329,1.466,2.261,2.494
					c1.002,1.063,2.206,2.382,3.509,3.997c1.316,1.602,2.898,3.357,4.428,5.474c0.789,1.042,1.614,2.131,2.472,3.263
					c0.854,1.139,1.649,2.391,2.524,3.649c1.786,2.495,3.445,5.323,5.248,8.261c3.438,5.973,6.857,12.752,9.813,20.141
					c2.888,7.418,5.022,14.706,6.59,21.418c0.689,3.378,1.41,6.576,1.809,9.619c0.22,1.517,0.494,2.975,0.648,4.39
					c0.147,1.414,0.288,2.772,0.423,4.072c0.328,2.591,0.371,4.953,0.505,7.022c0.151,2.07,0.172,3.855,0.166,5.316
					c0.021,1.388,0.039,2.504,0.052,3.365c0.022,0.77,0.048,1.175,0.079,1.176c0.031,0.001,0.065-0.402,0.102-1.171
					c0.03-0.862,0.068-1.98,0.116-3.369c0.059-1.464,0.089-3.256-0.014-5.335c-0.086-2.078-0.085-4.453-0.374-7.06
					c-0.117-1.308-0.24-2.675-0.367-4.098c-0.136-1.424-0.395-2.892-0.6-4.419c-0.37-3.064-1.066-6.285-1.738-9.688
					c-1.532-6.762-3.656-14.104-6.562-21.568c-2.974-7.435-6.437-14.246-9.935-20.231c-1.833-2.943-3.524-5.772-5.347-8.262
					c-0.893-1.256-1.707-2.504-2.58-3.638c-0.878-1.126-1.723-2.209-2.53-3.244c-1.569-2.101-3.192-3.835-4.549-5.412
					c-1.344-1.589-2.59-2.878-3.634-3.907c-0.984-0.982-1.776-1.772-2.386-2.382C101.319,268.148,101.019,267.877,100.997,267.899z"
					/>
			</g>
		</g>
	</g>
	<g>
		<path style="fill:#EBEBEB;" d="M698.943,174.319c0,0-9.4-6.215-20.858,16.268s-15.8,35.449-15.8,35.449s-3.029,4.711-6.264,1.632
			c-3.236-3.079-7.668-11.814-13.168-10.241c-5.704,1.631-7.583,7.997-6.495,17.352s2.718,29.937,2.859,31.799
			c0.138,1.828-0.909,4.52-3.449,2.776c-2.541-1.744-17.155-18.02-24.463-10.623c-7.308,7.397,0.004,32.96,0.75,35.769
			c0.746,2.81,0.196,4.01-1.139,4.705s-5.731-5.238-10.078-9.697c-4.346-4.459-10.167-8.867-14.026-4.246
			c-3.859,4.621-5.093,23.801,13.16,54.956l9.403,13.882l16.816-0.933c35.864-4.19,50.433-16.726,51.798-22.59
			c1.365-5.863-5.66-7.856-11.836-8.64c-6.177-0.785-13.562-0.721-13.81-2.205c-0.249-1.484,0.378-2.646,3.071-3.743
			c2.692-1.097,27.503-10.654,29.007-20.943c1.504-10.289-20.29-12.154-23.213-13.132c-2.922-0.978-1.403-3.435,0.139-4.425
			c1.571-1.009,18.984-12.102,27.108-16.868c8.123-4.765,12.074-10.099,9.941-15.635c-2.057-5.338-11.699-3.616-16.106-4.345
			c-4.407-0.729-2.47-5.984-2.47-5.984s7.737-11.274,18.785-33.962c11.048-22.688,0.14-26.49,0.14-26.49"/>
		<g>
			<path style="fill:#E0E0E0;" d="M688.647,194.436c0,0-0.063,0.169-0.208,0.487c-0.157,0.335-0.375,0.803-0.657,1.406
				c-0.598,1.251-1.462,3.062-2.571,5.385c-2.238,4.674-5.525,11.415-9.617,19.728c-8.179,16.63-19.671,39.507-32.443,64.733
				c-12.777,25.234-24.321,48.085-32.584,64.672c-4.116,8.283-7.449,14.993-9.765,19.653c-1.147,2.304-2.041,4.1-2.659,5.341
				c-0.302,0.593-0.536,1.053-0.703,1.383c-0.161,0.31-0.256,0.464-0.256,0.464s0.062-0.169,0.208-0.487
				c0.157-0.336,0.375-0.803,0.657-1.406c0.597-1.251,1.462-3.062,2.571-5.384c2.238-4.674,5.524-11.414,9.617-19.727
				c8.179-16.63,19.672-39.51,32.449-64.743c12.772-25.225,24.315-48.074,32.578-64.661c4.116-8.284,7.45-14.993,9.765-19.654
				c1.147-2.304,2.041-4.101,2.659-5.342c0.302-0.594,0.536-1.053,0.703-1.384C688.552,194.589,688.647,194.436,688.647,194.436z"/>
		</g>
		<g>
			<path style="fill:#E0E0E0;" d="M648.561,229.895c0.035-0.01,0.183,0.395,0.423,1.137c0.243,0.741,0.562,1.822,0.945,3.162
				c0.759,2.681,1.714,6.41,2.693,10.544c0.95,4.08,1.81,7.77,2.467,10.592c0.304,1.27,0.561,2.342,0.767,3.204
				c0.185,0.756,0.271,1.179,0.236,1.189c-0.034,0.01-0.186-0.394-0.431-1.134c-0.241-0.742-0.561-1.824-0.929-3.168
				c-0.733-2.689-1.639-6.429-2.617-10.563c-0.979-4.071-1.865-7.753-2.542-10.57c-0.311-1.269-0.573-2.34-0.784-3.201
				C648.609,230.329,648.526,229.905,648.561,229.895z"/>
		</g>
		<g>
			<path style="fill:#E0E0E0;" d="M657.633,260.021c-0.04-0.138,7.562-2.445,16.976-5.151c9.418-2.707,17.082-4.789,17.122-4.651
				c0.04,0.138-7.56,2.444-16.978,5.152C665.338,258.077,657.672,260.159,657.633,260.021z"/>
		</g>
		<g>
			<path style="fill:#E0E0E0;" d="M636.268,297.88c0.001-0.036,0.442-0.054,1.237-0.057c0.902,0.003,2.028,0.007,3.365,0.012
				c2.84,0.006,6.763-0.003,11.09-0.171c4.329-0.158,8.242-0.438,11.073-0.663c1.333-0.105,2.455-0.193,3.354-0.264
				c0.793-0.058,1.234-0.073,1.238-0.038s-0.429,0.119-1.215,0.239c-0.787,0.119-1.928,0.272-3.342,0.429
				c-2.827,0.32-6.747,0.658-11.089,0.817c-4.34,0.168-8.274,0.119-11.117,0.019c-1.422-0.056-2.571-0.114-3.365-0.177
				C636.704,297.966,636.266,297.916,636.268,297.88z"/>
		</g>
		<g>
			<path style="fill:#E0E0E0;" d="M622.065,272.437c0.031-0.018,0.263,0.317,0.656,0.938c0.441,0.722,0.983,1.609,1.622,2.655
				c1.35,2.253,3.184,5.383,5.182,8.857c1.998,3.475,3.782,6.634,5.05,8.934c0.583,1.079,1.076,1.993,1.479,2.737
				c0.339,0.652,0.512,1.021,0.481,1.039c-0.031,0.018-0.263-0.317-0.656-0.938c-0.441-0.722-0.983-1.609-1.622-2.655
				c-1.35-2.253-3.184-5.384-5.183-8.858c-1.998-3.473-3.781-6.633-5.049-8.933c-0.583-1.078-1.077-1.993-1.479-2.737
				C622.207,272.824,622.034,272.455,622.065,272.437z"/>
		</g>
		<g>
			<path style="fill:#E0E0E0;" d="M598.958,303.464c0.031-0.018,0.324,0.413,0.828,1.209c0.545,0.884,1.248,2.025,2.092,3.394
				c1.747,2.878,4.128,6.871,6.731,11.299c2.604,4.429,4.935,8.452,6.601,11.378c0.786,1.403,1.441,2.572,1.949,3.478
				c0.45,0.827,0.684,1.293,0.653,1.311c-0.031,0.018-0.324-0.413-0.828-1.209c-0.545-0.884-1.248-2.025-2.092-3.394
				c-1.747-2.878-4.128-6.872-6.732-11.301c-2.603-4.427-4.934-8.45-6.6-11.376c-0.786-1.403-1.441-2.572-1.949-3.478
				C599.161,303.948,598.927,303.482,598.958,303.464z"/>
		</g>
		<g>
			<path style="fill:#E0E0E0;" d="M617.577,334.639c0-0.036,0.557-0.074,1.565-0.112c1.101-0.036,2.536-0.083,4.267-0.139
				c3.602-0.121,8.576-0.308,14.061-0.669c5.487-0.353,10.445-0.803,14.032-1.154c1.723-0.167,3.153-0.306,4.249-0.413
				c1.004-0.094,1.562-0.128,1.566-0.093c0.005,0.036-0.544,0.138-1.541,0.294c-0.997,0.155-2.443,0.358-4.233,0.577
				c-3.58,0.445-8.542,0.954-14.039,1.308c-5.495,0.362-10.48,0.491-14.088,0.518c-1.804,0.009-3.264,0.001-4.273-0.026
				C618.134,334.706,617.577,334.675,617.577,334.639z"/>
		</g>
	</g>
</g>
<g id="Background_Simple" style="display:none;">
	<path style="display:inline;fill:#F5F5F5;" d="M91.899,144.396c-4.075,92.194,38.191,159.876,123.988,228.55
		c73.712,59.001,158.58,78.808,254.427,80.083c54.23,0.722,115.402-15.135,156.882-42.883
		c41.481-27.748,71.944-73.524,71.395-122.143c-0.549-48.619-37.227-97.119-87.11-104.782
		c-50.396-7.742-100.676,24.371-151.017,16.298c-36.48-5.85-65.88-31.835-89.03-59.597c-23.15-27.761-42.769-58.801-71.118-81.661
		c-23.6-19.031-53.262-31.749-84.029-32.83c-30.767-1.081-62.403,10.221-82.797,32.42C133.491,57.852,94.113,94.302,91.899,144.396z
		"/>
</g>
<g id="Floor">
	<g>
		<line style="fill:#263238;" x1="58.695" y1="458.175" x2="698.397" y2="458.175"/>
		<g>
			<path style="fill:#263238;" d="M698.397,458.175c0,0.144-143.214,0.26-319.836,0.26c-176.684,0-319.867-0.117-319.867-0.26
				c0-0.144,143.183-0.26,319.867-0.26C555.184,457.914,698.397,458.031,698.397,458.175z"/>
		</g>
	</g>
</g>
<g id="Plant">
	<g>
		<path style="fill:#E8505B;" d="M88.128,388.425c3.711,0.163,7.178,2.208,9.603,5.022c2.424,2.814,3.896,6.34,4.825,9.936
			c1.798,6.959,0.586,15.143-1.453,22.034c-7.493-2.751-12.059-10.807-14.119-15.039C83.728,403.691,81.906,389.625,88.128,388.425"
			/>
		<path style="fill:#E8505B;" d="M111.846,433.926c-2.342-3.425-2.357-8.161-0.451-11.847c1.906-3.686,5.531-6.325,9.508-7.509
			c1.839-0.548,3.969-0.766,5.555,0.314c1.483,1.009,2.111,2.969,1.903,4.751c-0.208,1.782-1.126,3.406-2.204,4.84
			C122.461,429.391,117.981,433.471,111.846,433.926"/>
		<g>
			<path style="fill:#263238;" d="M112.475,457.134c-0.037,0.005-0.146-0.511-0.324-1.445c-0.192-1.031-0.441-2.363-0.739-3.964
				c-0.564-3.332-1.465-8.072-0.708-13.296c0.729-5.202,2.84-9.635,5.036-12.275c1.081-1.336,2.113-2.279,2.876-2.857
				c0.369-0.305,0.694-0.492,0.9-0.635c0.211-0.137,0.327-0.201,0.337-0.186c0.081,0.094-1.767,1.211-3.823,3.905
				c-2.081,2.649-4.093,7.008-4.811,12.122c-0.744,5.118,0.083,9.814,0.556,13.162c0.254,1.682,0.46,3.046,0.576,3.992
				C112.468,456.603,112.509,457.129,112.475,457.134z"/>
		</g>
		<g>
			<path style="fill:#263238;" d="M90.462,399.014c0.017-0.007,0.119,0.19,0.298,0.572c0.196,0.434,0.448,0.991,0.76,1.68
				c0.652,1.463,1.567,3.591,2.676,6.23c2.219,5.278,5.183,12.612,8.274,20.784c3.089,8.176,5.717,15.638,7.543,21.064
				c0.914,2.713,1.635,4.914,2.113,6.442c0.222,0.723,0.401,1.307,0.541,1.763c0.118,0.405,0.172,0.62,0.155,0.626
				c-0.017,0.006-0.104-0.198-0.255-0.592c-0.164-0.447-0.374-1.021-0.633-1.731c-0.558-1.569-1.327-3.736-2.269-6.387
				c-1.915-5.393-4.596-12.83-7.683-21c-3.088-8.166-5.996-15.517-8.127-20.828c-1.047-2.611-1.903-4.745-2.523-6.291
				c-0.275-0.704-0.497-1.274-0.67-1.718C90.515,399.232,90.445,399.021,90.462,399.014z"/>
		</g>
		<path style="fill:#E8505B;" d="M103.684,441.707c-4.368-7.58-12.6-12.793-21.32-13.501c-2.22-0.18-4.896,0.171-5.904,2.157
			c-1.01,1.99,0.297,4.367,1.797,6.02c6.24,6.876,16.873,9.346,25.505,5.923"/>
		<g>
			<path style="fill:#263238;" d="M85.696,434.183c0.003-0.036,0.497-0.012,1.391,0.063c0.448,0.034,0.995,0.079,1.622,0.202
				c0.625,0.122,1.353,0.196,2.126,0.419c0.779,0.198,1.638,0.397,2.527,0.725c0.907,0.276,1.837,0.673,2.814,1.097
				c1.929,0.896,3.974,2.065,5.918,3.577c1.93,1.531,3.556,3.237,4.875,4.907c0.634,0.856,1.24,1.667,1.711,2.491
				c0.521,0.792,0.906,1.586,1.269,2.304c0.389,0.705,0.615,1.401,0.868,1.986c0.255,0.585,0.413,1.112,0.539,1.543
				c0.259,0.859,0.385,1.337,0.35,1.347c-0.111,0.038-0.629-1.886-2.086-4.71c-0.379-0.698-0.776-1.471-1.306-2.241
				c-0.479-0.801-1.089-1.59-1.722-2.424c-1.318-1.626-2.924-3.29-4.819-4.794c-1.909-1.485-3.91-2.646-5.797-3.551
				c-0.956-0.429-1.866-0.835-2.754-1.125c-0.869-0.342-1.712-0.557-2.476-0.776C87.669,434.419,85.683,434.296,85.696,434.183z"/>
		</g>
	</g>
</g>
<g id="Device">
	<g>
		<g>
			<g>
				<g>
					<path style="fill:#263238;" d="M592.107,69.831H152.46c-7.58,0-13.723,6.144-13.723,13.723v310.532
						c0,7.58,6.144,13.724,13.723,13.724h168.736c0,0,10.733,33.191-22.54,50.364h157.776c0,0-37.567-12.879-27.908-50.364h163.583
						c7.578,0,13.723-6.145,13.723-13.723V83.555C605.831,75.975,599.686,69.831,592.107,69.831z"/>
				</g>
			</g>
			<g>
				<g>
					<path style="fill:#455A64;" d="M378.153,375.152c5.98,8.547-3.379,17.908-11.929,11.928c-0.281-0.198-0.538-0.454-0.735-0.737
						c-5.964-8.546,3.384-17.894,11.928-11.927C377.7,374.614,377.956,374.87,378.153,375.152z"/>
				</g>
			</g>
		</g>
		<g>
			<g>
				<g>
					<g>
						<path style="fill:#E0E0E0;" d="M591.721,353.196H151.93c-1.807,0-3.273-1.465-3.273-3.273V91.719
							c0-1.807,1.465-3.273,3.273-3.273h439.791c1.807,0,3.272,1.465,3.272,3.272v258.205
							C594.993,351.731,593.528,353.196,591.721,353.196z"/>
					</g>
				</g>
				<g>
					<g>
						<rect x="148.657" y="107.844" style="fill:#FFFFFF;" width="446.336" height="245.352"/>
					</g>
				</g>
				<g>
					<g>
						<path style="fill:#455A64;" d="M185.264,98.67c0,1.969-1.596,3.565-3.565,3.565c-1.969,0-3.564-1.596-3.564-3.565
							c0-1.969,1.595-3.564,3.564-3.564C183.668,95.106,185.264,96.701,185.264,98.67z"/>
					</g>
				</g>
				<g>
					<g>
						<path style="fill:#455A64;" d="M163.66,98.67c0,1.969-1.596,3.565-3.565,3.565c-1.968,0-3.565-1.596-3.565-3.565
							c0-1.969,1.597-3.564,3.565-3.564C162.064,95.106,163.66,96.701,163.66,98.67z"/>
					</g>
				</g>
				<g>
					<g>
						<path style="fill:#455A64;" d="M174.03,98.67c0,1.969-1.596,3.565-3.565,3.565c-1.969,0-3.565-1.596-3.565-3.565
							c0-1.969,1.596-3.564,3.565-3.564C172.434,95.106,174.03,96.701,174.03,98.67z"/>
					</g>
				</g>
			</g>
		</g>
	</g>
</g>
<g id="Character_3">
	<g>
		<rect x="463.579" y="122.633" style="fill:#F5F5F5;" width="117.54" height="196.376"/>
		<g>
			<polygon style="fill:#E8505B;" points="494.763,238.273 496.023,240.825 498.839,241.234 496.801,243.221 497.283,246.026 
				494.763,244.702 492.244,246.026 492.725,243.221 490.687,241.234 493.504,240.825 			"/>
			<polygon style="fill:#E8505B;" points="508.759,238.273 510.018,240.825 512.835,241.234 510.797,243.221 511.278,246.026 
				508.759,244.702 506.239,246.026 506.72,243.221 504.682,241.234 507.499,240.825 			"/>
			<polygon style="fill:#E8505B;" points="522.754,238.273 524.013,240.825 526.83,241.234 524.792,243.221 525.273,246.026 
				522.754,244.702 520.235,246.026 520.716,243.221 518.678,241.234 521.494,240.825 			"/>
			<polygon style="fill:#E8505B;" points="536.749,238.273 538.009,240.825 540.825,241.234 538.787,243.221 539.268,246.026 
				536.749,244.702 534.23,246.026 534.711,243.221 532.673,241.234 535.49,240.825 			"/>
			<polygon style="fill:#E8505B;" points="550.744,238.273 552.004,240.825 554.82,241.234 552.782,243.221 553.263,246.026 
				550.744,244.702 548.225,246.026 548.706,243.221 546.668,241.234 549.485,240.825 			"/>
		</g>
		<g>
			<g>
				<path style="fill:#E8505B;" d="M517.552,261.292c0,0.144-8.924,0.26-19.929,0.26c-11.009,0-19.931-0.117-19.931-0.26
					s8.922-0.26,19.931-0.26C508.629,261.032,517.552,261.148,517.552,261.292z"/>
			</g>
			<g>
				<path style="fill:#263238;" d="M567.639,269.946c0,0.144-19.902,0.26-44.446,0.26c-24.553,0-44.451-0.116-44.451-0.26
					c0-0.144,19.898-0.26,44.451-0.26C547.737,269.685,567.639,269.802,567.639,269.946z"/>
			</g>
			<g>
				<path style="fill:#263238;" d="M567.639,277.381c0,0.144-19.902,0.26-44.446,0.26c-24.553,0-44.451-0.117-44.451-0.26
					c0-0.144,19.898-0.26,44.451-0.26C547.737,277.121,567.639,277.237,567.639,277.381z"/>
			</g>
			<g>
				<path style="fill:#263238;" d="M567.639,284.817c0,0.144-19.902,0.26-44.446,0.26c-24.553,0-44.451-0.116-44.451-0.26
					c0-0.144,19.898-0.26,44.451-0.26C547.737,284.556,567.639,284.673,567.639,284.817z"/>
			</g>
			<g>
				<path style="fill:#263238;" d="M567.639,292.252c0,0.144-19.902,0.26-44.446,0.26c-24.553,0-44.451-0.117-44.451-0.26
					s19.898-0.26,44.451-0.26C547.737,291.992,567.639,292.108,567.639,292.252z"/>
			</g>
			<g>
				<path style="fill:#263238;" d="M567.639,299.688c0,0.144-19.902,0.26-44.446,0.26c-24.553,0-44.451-0.117-44.451-0.26
					s19.898-0.26,44.451-0.26C547.737,299.427,567.639,299.544,567.639,299.688z"/>
			</g>
		</g>
		<g>
			<rect x="471.314" y="132.604" style="fill:#E0E0E0;" width="101.249" height="97.203"/>
			<g>
				<polygon style="fill:#FFBE9D;" points="557.518,212.861 564.104,229.807 548.161,229.807 544.567,220.578 				"/>
				<g>
					<g>
						<g>
							<g>
								<g>
									<g>
										<path style="fill:#E8505B;" d="M496.831,229.807h43.166l0,0c0.677-6.373,1.089-12.403,1.089-12.403l2.221,6.023
											l18.13-9.065c0,0-6.591-17.575-12.108-23.526c-6.971-7.521-19.512-6.773-19.512-6.773l-16.275,0.264
											c0,0-6.198,0.564-12.053,3.505l-0.402,0.117l0.004,0.084c-3.524,3.018-14.101,17.173-14.101,17.173l3.902,3.799
											l7.994,7.445c0,0-0.033,0.052-0.017,0.145C499.004,217.382,496.831,229.807,496.831,229.807z"/>
									</g>
								</g>
							</g>
						</g>
					</g>
					<g>
						<path style="fill:#263238;" d="M530.28,183.449c0.018-0.003,0.048,0.097,0.088,0.29c0.048,0.193,0.084,0.483,0.112,0.86
							c0.05,0.751-0.018,1.865-0.443,3.16c-0.436,1.28-1.259,2.748-2.645,3.931c-1.37,1.195-3.33,1.965-5.421,2.029
							c-2.093,0.053-4.093-0.606-5.528-1.723c-1.45-1.103-2.353-2.523-2.861-3.777c-0.497-1.269-0.626-2.378-0.619-3.13
							c0.007-0.378,0.027-0.669,0.064-0.865c0.03-0.196,0.054-0.297,0.072-0.295c0.125-0.016-0.226,1.715,0.822,4.147
							c0.53,1.186,1.425,2.516,2.808,3.535c1.365,1.03,3.248,1.635,5.226,1.587c1.977-0.062,3.822-0.772,5.128-1.876
							c1.324-1.095,2.144-2.473,2.606-3.686C530.601,185.149,530.155,183.439,530.28,183.449z"/>
					</g>
					<g>
						<path style="fill:#263238;" d="M545.7,187.312c0.004,0.052-0.436,0.04-1.151,0.297c-0.712,0.244-1.687,0.831-2.514,1.903
							c-0.842,1.058-1.396,2.62-1.635,4.407c-0.235,1.79-0.291,3.812-0.366,5.914c-0.112,4.216,0.05,8.035,0.241,10.793
							c0.099,1.295,0.182,2.387,0.25,3.267c0.065,0.771,0.085,1.201,0.049,1.206c-0.035,0.005-0.123-0.416-0.25-1.182
							c-0.118-0.767-0.277-1.879-0.415-3.26c-0.286-2.76-0.508-6.598-0.395-10.838c0.076-2.119,0.144-4.131,0.412-5.971
							c0.27-1.831,0.89-3.475,1.822-4.566c0.911-1.103,1.977-1.672,2.74-1.866c0.383-0.105,0.691-0.132,0.897-0.135
							C545.592,187.284,545.699,187.294,545.7,187.312z"/>
					</g>
					<g>
						<path style="fill:#263238;" d="M507.009,185.487c0.034,0.012-0.076,0.447-0.304,1.225c-0.262,0.878-0.591,1.979-0.982,3.287
							c-0.832,2.774-1.946,6.615-3.058,10.889c-1.11,4.276-2.006,8.174-2.63,11.002c-0.295,1.333-0.544,2.455-0.742,3.349
							c-0.18,0.79-0.296,1.225-0.331,1.218c-0.035-0.006,0.013-0.453,0.132-1.256c0.116-0.803,0.314-1.96,0.581-3.385
							c0.533-2.851,1.374-6.772,2.486-11.059c1.115-4.285,2.289-8.119,3.211-10.869c0.461-1.375,0.852-2.482,1.141-3.24
							C506.8,185.889,506.975,185.475,507.009,185.487z"/>
					</g>
					<path style="opacity:0.2;" d="M539.74,200.972l5.96,21.259l-2.393,1.197l-2.221-6.023
						C541.085,217.404,538.927,204.801,539.74,200.972z"/>
					<g style="opacity:0.2;">
						<path d="M507.699,185.513c-3.467,1.758,5.05,6.32,8.937,6.278l-2.676-7.566C513.96,184.225,508.862,184.923,507.699,185.513z"
							/>
					</g>
				</g>
				<g>
					<g>
						<g>
							<g>
								<g>
									<g>
										<g>
											<path style="fill:#FFBE9D;" d="M522.352,193.244L522.352,193.244c-5.103,0.345-9.383-3.807-9.194-8.919
												c0.103-2.779,0.197-5.042,0.197-5.042s-6.87-0.598-7.413-7.389c-0.543-6.791-0.418-22.479-0.418-22.479l0,0
												c7.64-3.913,16.799-3.384,23.938,1.381l1.06,0.708l-0.131,33.175C530.373,189.2,526.864,192.939,522.352,193.244z"/>
										</g>
									</g>
									<g>
										<g>
											<g>
												<path style="fill:#263238;" d="M509.214,161.413c0.379-0.393,0.368-1.02-0.026-1.399
													c-0.393-0.379-1.02-0.367-1.399,0.026c-0.379,0.394-0.367,1.02,0.026,1.399
													C508.209,161.819,508.835,161.807,509.214,161.413z"/>
											</g>
										</g>
										<g>
											<g>
												<g>
													<path style="fill:#263238;" d="M506.195,159.393c0.114,0.11,0.747-0.448,1.683-0.516
														c0.935-0.081,1.648,0.37,1.743,0.243c0.047-0.057-0.074-0.262-0.385-0.467c-0.306-0.204-0.82-0.387-1.403-0.34
														c-0.583,0.046-1.061,0.308-1.331,0.558C506.227,159.123,506.14,159.345,506.195,159.393z"/>
												</g>
											</g>
										</g>
									</g>
									<g>
										<g>
											<g>
												<path style="fill:#263238;" d="M517.749,159.921c-0.445,0.317-0.549,0.935-0.232,1.38
													c0.317,0.445,0.935,0.549,1.38,0.232c0.445-0.317,0.549-0.935,0.232-1.38
													C518.812,159.708,518.194,159.604,517.749,159.921z"/>
											</g>
										</g>
										<g>
											<g>
												<g>
													<path style="fill:#263238;" d="M516.103,159.416c0.115,0.111,0.747-0.448,1.683-0.516
														c0.935-0.081,1.648,0.37,1.743,0.243c0.047-0.057-0.073-0.262-0.385-0.467c-0.306-0.204-0.82-0.387-1.403-0.34
														c-0.583,0.046-1.062,0.308-1.331,0.558C516.134,159.146,516.048,159.367,516.103,159.416z"/>
												</g>
											</g>
										</g>
									</g>
									<g>
										<g>
											<g>
												<path style="fill:#263238;" d="M513.116,167.665c0.001-0.074-0.586-0.152-1.536-0.219
													c-0.247-0.01-0.443-0.053-0.469-0.183c-0.054-0.145,0.023-0.413,0.128-0.713c0.199-0.635,0.401-1.279,0.612-1.952
													c0.84-2.779,1.406-5.066,1.265-5.109c-0.141-0.043-0.936,2.175-1.776,4.954c-0.197,0.678-0.386,1.325-0.572,1.964
													c-0.071,0.289-0.219,0.631-0.065,1.027c0.081,0.198,0.284,0.331,0.448,0.363c0.165,0.038,0.304,0.029,0.421,0.026
													C512.525,167.794,513.114,167.738,513.116,167.665z"/>
											</g>
										</g>
									</g>
									<g>
										<g>
											<path style="fill:#EB996E;" d="M513.337,179.186c0,0,4.319,0.06,8.691-3.117c0,0-1.764,5.033-8.588,4.879
												L513.337,179.186z"/>
										</g>
									</g>
								</g>
							</g>
							<g>
								<g>
									<g>
										<path style="fill:#FFBE9D;" d="M530.217,158.74c0.135-0.052,5.562-0.643,4.706,4.606
											c-0.739,4.537-5.619,3.152-5.617,2.999C529.309,166.192,530.217,158.74,530.217,158.74z"/>
									</g>
								</g>
								<g>
									<g>
										<g>
											<path style="fill:#EB996E;" d="M531.209,164.348c0.021-0.013,0.074,0.061,0.202,0.131
												c0.125,0.069,0.344,0.126,0.586,0.056c0.489-0.139,0.945-0.865,1.027-1.675c0.042-0.409-0.015-0.806-0.136-1.14
												c-0.113-0.34-0.309-0.585-0.546-0.646c-0.234-0.073-0.414,0.058-0.479,0.181c-0.07,0.121-0.048,0.214-0.072,0.219
												c-0.013,0.01-0.091-0.082-0.041-0.266c0.025-0.088,0.086-0.19,0.198-0.269c0.115-0.08,0.277-0.113,0.443-0.082
												c0.345,0.05,0.634,0.393,0.768,0.759c0.152,0.37,0.226,0.816,0.179,1.275c-0.096,0.905-0.624,1.72-1.289,1.86
												c-0.323,0.059-0.58-0.056-0.709-0.172C531.209,164.458,531.193,164.355,531.209,164.348z"/>
										</g>
									</g>
								</g>
							</g>
						</g>
					</g>
					<g>
						<path style="fill:#263238;" d="M529.084,163.456c-1.051,0.634-2.482-0.152-3.025-1.253c-0.543-1.101-0.482-2.387-0.529-3.614
							c-0.064-1.67-0.354-3.331-0.858-4.924c-0.324-1.022-0.798-2.089-1.731-2.616c-1.067-0.602-2.406-0.318-3.556,0.105
							c-1.15,0.423-2.315,0.979-3.536,0.872c-1.612-0.141-2.943-1.409-4.546-1.63c-1.485-0.204-2.917,0.515-4.359,0.925
							c-1.446,0.411-3.043,0.504-4.42-0.099c-1.378-0.603-2.461-2.016-2.354-3.516c0.106-1.5,1.66-2.827,3.109-2.426
							c-1.13-0.583-1.228-2.343-0.365-3.276c0.864-0.932,2.331-1.093,3.542-0.706c1.211,0.387,2.219,1.224,3.164,2.075
							c0.119-1.141,1.275-1.968,2.42-2.04s2.248,0.447,3.199,1.088c0.951,0.642,1.813,1.419,2.817,1.972
							c2.007,1.105,4.385,1.223,6.638,1.639c2.253,0.417,4.652,1.32,5.747,3.332c0.965,1.774,0.317,3.903,0.234,5.921
							c-0.086,2.1-0.084,2.569-0.186,4.541C530.489,159.828,530.622,162.568,529.084,163.456z"/>
					</g>
					<g>
						<g>
							<path style="fill:#FFFFFF;" d="M512.267,170.409c-0.009,0.061,0.257,0.173,0.715,0.166c0.452-0.004,1.1-0.161,1.671-0.59
								c0.571-0.43,0.901-1.009,1.031-1.443c0.134-0.438,0.1-0.725,0.039-0.733c-0.134-0.037-0.37,1.044-1.363,1.785
								C513.372,170.343,512.269,170.27,512.267,170.409z"/>
						</g>
					</g>
					<g>
						<g>
							<path style="fill:#455A64;" d="M504.456,146.674c0.034-0.015-0.45,0.203-0.407,0.942c0.03,0.344,0.191,0.77,0.56,1.111
								c0.371,0.351,0.984,0.471,1.593,0.382c0.618-0.091,1.243-0.38,1.857-0.748c0.616-0.359,1.254-0.795,2.015-0.992
								c0.759-0.187,1.61-0.04,2.371,0.363c0.773,0.383,1.499,0.926,2.293,1.414c0.781,0.485,1.67,0.904,2.586,0.834
								c0.928-0.045,1.662-0.605,2.29-1.08c0.633-0.489,1.246-0.954,1.922-1.134c0.676-0.165,1.35-0.087,1.908,0.118
								c1.128,0.424,1.793,1.236,2.061,1.839c0.278,0.614,0.264,1.007,0.294,1.001c0,0,0.038-0.392-0.225-1.032
								c-0.254-0.627-0.919-1.481-2.082-1.937c-0.575-0.221-1.279-0.313-1.997-0.145c-0.721,0.186-1.357,0.665-1.99,1.148
								c-0.632,0.473-1.335,0.997-2.194,1.033c-0.85,0.064-1.698-0.329-2.471-0.81c-0.784-0.48-1.514-1.027-2.311-1.419
								c-0.781-0.412-1.695-0.572-2.5-0.366c-0.803,0.215-1.445,0.666-2.054,1.027c-0.603,0.37-1.207,0.655-1.795,0.751
								c-0.581,0.093-1.152-0.012-1.5-0.327c-0.352-0.311-0.518-0.712-0.556-1.036C504.058,146.917,504.5,146.683,504.456,146.674z"
								/>
						</g>
					</g>
					<g>
						<g>
							<path style="fill:#455A64;" d="M507.471,143.095c0,0-0.043-0.087-0.198-0.174c-0.151-0.087-0.434-0.136-0.748-0.007
								c-0.316,0.106-0.641,0.504-0.574,1c0.046,0.478,0.412,0.997,0.992,1.193c0.573,0.208,1.26,0.134,1.911-0.083
								c0.657-0.206,1.318-0.539,2.065-0.622c0.754-0.115,1.5,0.255,2.097,0.819c0.615,0.541,1.167,1.259,2.016,1.648
								c0.867,0.401,1.82,0.142,2.583-0.153c0.785-0.301,1.517-0.629,2.273-0.714c1.507-0.204,2.895,0.227,3.84,0.864
								c0.961,0.638,1.521,1.421,1.837,1.977c0.317,0.563,0.413,0.914,0.433,0.906c0,0-0.066-0.36-0.366-0.943
								c-0.299-0.575-0.851-1.386-1.826-2.056c-0.96-0.669-2.383-1.128-3.941-0.928c-0.782,0.083-1.544,0.42-2.316,0.713
								c-0.761,0.292-1.646,0.522-2.438,0.154c-0.786-0.356-1.337-1.056-1.967-1.611c-0.604-0.576-1.442-0.989-2.245-0.855
								c-0.79,0.095-1.455,0.441-2.095,0.647c-0.634,0.219-1.281,0.291-1.815,0.106c-0.536-0.172-0.877-0.64-0.93-1.076
								c-0.068-0.449,0.205-0.804,0.496-0.918c0.287-0.131,0.553-0.099,0.7-0.028C507.407,143.026,507.463,143.104,507.471,143.095z
								"/>
						</g>
					</g>
					<g>
						<g>
							<path style="fill:#263238;" d="M527.552,148.409c0.132,0.049,0.493-0.765,1.378-1.304c0.87-0.565,1.759-0.538,1.772-0.678
								c0.008-0.061-0.215-0.161-0.602-0.165c-0.384-0.007-0.926,0.113-1.43,0.43c-0.503,0.318-0.846,0.754-1.006,1.103
								C527.501,148.145,527.494,148.39,527.552,148.409z"/>
						</g>
					</g>
					<g>
						<g>
							<path style="fill:#263238;" d="M528.349,143.382c-0.139,0.036,0.06,1.062-0.106,2.305c-0.149,1.246-0.597,2.19-0.471,2.26
								c0.102,0.076,0.79-0.837,0.956-2.198C528.905,144.389,528.466,143.333,528.349,143.382z"/>
						</g>
					</g>
					<g>
						<g>
							<path style="fill:#455A64;" d="M529.945,161.606c0.016,0.043,0.524-0.682,0.282-1.935c-0.093-0.637-0.591-1.243-1.082-1.861
								c-0.244-0.311-0.467-0.67-0.525-1.082c-0.058-0.414,0.041-0.856,0.156-1.303c0.264-0.893,0.353-1.831,0.152-2.636
								c-0.184-0.811-0.676-1.449-1.209-1.776c-0.528-0.346-1.058-0.417-1.401-0.389c-0.348,0.03-0.518,0.13-0.518,0.13
								c0.005,0.019,0.186-0.048,0.521-0.054c0.331-0.003,0.83,0.085,1.321,0.428c0.496,0.328,0.943,0.928,1.11,1.702
								c0.18,0.772,0.096,1.657-0.166,2.546c-0.115,0.45-0.222,0.916-0.156,1.378c0.068,0.465,0.319,0.85,0.572,1.165
								c0.51,0.628,0.984,1.181,1.089,1.78c0.135,0.583,0.089,1.083,0.017,1.408C530.038,161.439,529.928,161.597,529.945,161.606z"
								/>
						</g>
					</g>
				</g>
				<g>
					<g>
						<path style="fill:#263238;" d="M524.978,210.003c0.016,0.016,0.031,0.239,0.048,0.644c0.015,0.475,0.034,1.045,0.056,1.727
							c0.04,1.478,0.089,3.559,0.112,6.065l-0.068-0.157c0.944,0.879,1.985,1.847,3.088,2.874l-0.26-0.049
							c1.648-0.666,3.437-1.389,5.3-2.142l-0.159,0.195c0.029-0.158,0.059-0.329,0.09-0.5c0.581-3.151,1.128-6.117,1.603-8.697
							l0.226,0.271c-2.946-0.021-5.424-0.073-7.192-0.116c-0.824-0.024-1.511-0.044-2.072-0.061
							C525.265,210.037,524.995,210.02,524.978,210.003c-0.018-0.018,0.218-0.035,0.678-0.053c0.547-0.016,1.216-0.036,2.02-0.061
							c1.753-0.043,4.293-0.094,7.34-0.116l0.275-0.002l-0.048,0.273c-0.458,2.583-0.984,5.553-1.543,8.708
							c-0.031,0.171-0.062,0.342-0.091,0.5l-0.026,0.142l-0.134,0.053c-1.867,0.743-3.66,1.458-5.311,2.115l-0.147,0.059
							l-0.113-0.108c-1.089-1.042-2.116-2.025-3.048-2.917l-0.069-0.066l0.001-0.092c0.023-2.602,0.072-4.738,0.112-6.201
							c0.022-0.663,0.041-1.217,0.056-1.678C524.946,210.179,524.962,209.987,524.978,210.003z"/>
					</g>
					<g>
						<path style="fill:#263238;" d="M534.414,212.607c0.009,0.14-2.104,0.389-4.724,0.396c-2.62,0.011-4.735-0.222-4.727-0.363
							c0.008-0.147,2.122-0.147,4.725-0.158C532.291,212.475,534.405,212.461,534.414,212.607z"/>
					</g>
				</g>
				<path style="fill:#FFBE9D;" d="M489.266,207.393c0.214,0.208-16.015,22.413-16.015,22.413h15.892l9.742-13.357L489.266,207.393z
					"/>
			</g>
		</g>
	</g>
</g>
<g id="Character_2">
	<g>
		<rect x="289.536" y="86.106" style="fill:#F5F5F5;" width="167.538" height="279.908"/>
		<g>
			<polygon style="fill:#E8505B;" points="333.985,250.936 335.78,254.574 339.795,255.157 336.89,257.989 337.576,261.987 
				333.985,260.1 330.394,261.987 331.08,257.989 328.175,255.157 332.189,254.574 			"/>
			<polygon style="fill:#E8505B;" points="353.933,250.936 355.729,254.574 359.743,255.157 356.838,257.989 357.524,261.987 
				353.933,260.1 350.342,261.987 351.028,257.989 348.123,255.157 352.138,254.574 			"/>
			<polygon style="fill:#E8505B;" points="373.882,250.936 375.677,254.574 379.692,255.157 376.786,257.989 377.472,261.987 
				373.882,260.1 370.291,261.987 370.977,257.989 368.072,255.157 372.086,254.574 			"/>
			<polygon style="fill:#E8505B;" points="393.83,250.936 395.625,254.574 399.64,255.157 396.735,257.989 397.421,261.987 
				393.83,260.1 390.239,261.987 390.925,257.989 388.02,255.157 392.034,254.574 			"/>
			<polygon style="fill:#E8505B;" points="413.778,250.936 415.574,254.574 419.588,255.157 416.683,257.989 417.369,261.987 
				413.778,260.1 410.187,261.987 410.873,257.989 407.968,255.157 411.983,254.574 			"/>
		</g>
		<g>
			<g>
				<path style="fill:#E8505B;" d="M366.468,283.747c0,0.144-12.719,0.26-28.406,0.26c-15.692,0-28.409-0.117-28.409-0.26
					s12.717-0.26,28.409-0.26C353.748,283.486,366.468,283.603,366.468,283.747z"/>
			</g>
			<g>
				<path style="fill:#263238;" d="M437.86,296.081c0,0.144-28.368,0.26-63.353,0.26c-34.997,0-63.359-0.116-63.359-0.26
					c0-0.144,28.362-0.26,63.359-0.26C409.492,295.821,437.86,295.938,437.86,296.081z"/>
			</g>
			<g>
				<path style="fill:#263238;" d="M437.86,306.68c0,0.144-28.368,0.26-63.353,0.26c-34.997,0-63.359-0.117-63.359-0.26
					s28.362-0.26,63.359-0.26C409.492,306.419,437.86,306.536,437.86,306.68z"/>
			</g>
			<g>
				<path style="fill:#263238;" d="M437.86,317.278c0,0.144-28.368,0.26-63.353,0.26c-34.997,0-63.359-0.117-63.359-0.26
					c0-0.144,28.362-0.26,63.359-0.26C409.492,317.018,437.86,317.134,437.86,317.278z"/>
			</g>
			<g>
				<path style="fill:#263238;" d="M437.86,327.876c0,0.144-28.368,0.26-63.353,0.26c-34.997,0-63.359-0.117-63.359-0.26
					c0-0.144,28.362-0.26,63.359-0.26C409.492,327.616,437.86,327.733,437.86,327.876z"/>
			</g>
			<g>
				<path style="fill:#263238;" d="M437.86,338.474c0,0.144-28.368,0.26-63.353,0.26c-34.997,0-63.359-0.116-63.359-0.26
					c0-0.144,28.362-0.26,63.359-0.26C409.492,338.214,437.86,338.331,437.86,338.474z"/>
			</g>
		</g>
		<g>
			<rect x="300.561" y="100.318" style="fill:#E0E0E0;" width="144.318" height="138.551"/>
			<g>
				<path style="fill:#263238;" d="M364.454,123.278c1.508-5.066,6.149-8.859,11.289-10.089c5.14-1.23,11.52-2.911,16.227-0.507
					c2.941,1.502,5.762,3.675,6.918,6.769c1.37,3.668-0.738,10.512-1.789,14.284c-1.052,3.771-1.843,8.073,0.236,11.391
					c2.023,3.229,6.14,4.484,8.697,7.309c3.546,3.919,3.031,10.789-1.06,14.135c4.546-0.266,8.385,4.371,8.226,8.921
					c-0.158,4.551-3.49,8.545-7.55,10.607c-4.06,2.062-8.746,2.492-13.299,2.5c-5.643,0.009-11.287-0.576-16.809-1.742
					c-4.553-0.962-9.301-2.496-12.263-6.085c-2.722-3.298-3.475-7.803-3.483-12.079c-0.029-15.131,7.914-30.131,4.471-44.866"/>
				<path style="fill:#263238;" d="M368.141,119.802c-4.718-3.255-11.356-3.451-16.257-0.48c-4.902,2.97-7.8,8.945-7.099,14.634
					c0.366,2.97,1.619,5.965,0.856,8.859c-1.429,5.422-9.077,7.54-10.085,13.056c-0.398,2.175,0.376,4.369,0.959,6.502
					c0.584,2.133,0.953,4.538-0.148,6.455c-0.816,1.42-2.293,2.308-3.452,3.466c-3.727,3.721-3.659,10.251-0.538,14.494
					c3.121,4.243,8.641,6.279,13.905,6.109c5.264-0.171,10.295-2.295,14.785-5.048"/>
				<g>
					<g>
						<g>
							<g>
								<path style="fill:#B78876;" d="M357.087,125.877l0.071,3.598l0.723,53.87c0.084,6.254,5.528,11.162,12.223,11.021h0
									c6.762-0.143,12.255-5.377,12.274-11.695c0.02-6.632,0.163-13.614,0.163-13.614s8.544-1.419,10.314-12.566
									c0.88-5.544,0.602-14.633,0.134-22.063c-0.421-6.688-6.32-11.679-12.984-10.974L357.087,125.877z"/>
							</g>
							<g>
								<g>
									<path style="fill:#263238;" d="M388.699,140.756c0.027,0.755-0.591,1.4-1.379,1.442c-0.786,0.042-1.447-0.534-1.474-1.289
										c-0.027-0.755,0.591-1.401,1.377-1.443C388.012,139.424,388.673,140.001,388.699,140.756z"/>
								</g>
								<g>
									<g>
										<path style="fill:#263238;" d="M391.017,139.155c-0.177,0.186-1.26-0.615-2.799-0.611
											c-1.537-0.018-2.666,0.773-2.833,0.585c-0.082-0.083,0.099-0.42,0.59-0.778c0.484-0.356,1.309-0.703,2.268-0.699
											c0.958,0.005,1.764,0.358,2.228,0.719C390.944,138.735,391.105,139.072,391.017,139.155z"/>
									</g>
								</g>
							</g>
							<g>
								<g>
									<path style="fill:#263238;" d="M373.881,140.756c0.027,0.755-0.591,1.4-1.379,1.442c-0.786,0.042-1.447-0.534-1.474-1.289
										c-0.027-0.755,0.591-1.401,1.377-1.443C373.193,139.424,373.854,140.001,373.881,140.756z"/>
								</g>
								<g>
									<g>
										<path style="fill:#263238;" d="M375.895,139.442c-0.177,0.186-1.262-0.615-2.799-0.611
											c-1.537-0.018-2.666,0.773-2.833,0.585c-0.082-0.083,0.097-0.42,0.591-0.778c0.484-0.357,1.309-0.703,2.267-0.699
											c0.958,0.005,1.764,0.358,2.228,0.719C375.821,139.022,375.982,139.359,375.895,139.442z"/>
									</g>
								</g>
							</g>
							<g>
								<g>
									<path style="fill:#263238;" d="M381.478,150.851c-0.007-0.087,0.949-0.253,2.499-0.451
										c0.393-0.041,0.764-0.119,0.831-0.387c0.092-0.284-0.072-0.707-0.262-1.164c-0.369-0.951-0.756-1.947-1.162-2.991
										c-1.613-4.259-2.781-7.761-2.609-7.824c0.172-0.063,1.62,3.337,3.233,7.596c0.388,1.05,0.76,2.051,1.113,3.009
										c0.149,0.446,0.404,0.953,0.204,1.542c-0.106,0.294-0.394,0.507-0.646,0.574c-0.252,0.077-0.473,0.081-0.667,0.093
										C382.452,150.932,381.484,150.939,381.478,150.851z"/>
								</g>
							</g>
							<g>
								<path style="fill:#AA6550;" d="M382.541,169.056c0,0-7.499,0.483-14.929-3.982c0,0,3.622,7.658,14.779,6.614
									L382.541,169.056z"/>
							</g>
							<g>
								<path style="fill:#AA6550;" d="M380.828,154.559c-0.553-0.732-1.523-1.133-2.485-1.03c-0.668,0.072-1.342,0.394-1.748,0.937
									c-0.406,0.544-0.491,1.315-0.122,1.834c0.415,0.584,1.283,0.719,2.017,0.51c0.734-0.209,1.366-0.692,1.966-1.174
									c0.166-0.133,0.336-0.272,0.44-0.455c0.103-0.183,0.126-0.421-0.002-0.573"/>
							</g>
							<g>
								<g>
									<path style="fill:#263238;" d="M376.951,151.916c0.25-0.015,0.253,1.655,1.683,2.84c1.427,1.189,3.207,1.002,3.22,1.235
										c0.023,0.105-0.397,0.324-1.148,0.345c-0.737,0.025-1.813-0.211-2.688-0.937c-0.872-0.727-1.247-1.697-1.304-2.382
										C376.65,152.32,376.837,151.906,376.951,151.916z"/>
								</g>
							</g>
						</g>
					</g>
				</g>
				<g>
					<path style="fill:#263238;" d="M366.156,120.655c0.058-0.132,0.181-0.205,0.276-0.163c0.095,0.042,0.125,0.182,0.067,0.314
						c-0.058,0.132-0.181,0.205-0.276,0.163C366.128,120.927,366.099,120.787,366.156,120.655z"/>
				</g>
				<path style="fill:#263238;" d="M356.504,178.616c3.291-1.144,5.882-3.941,7.118-7.199c1.236-3.258,1.191-6.922,0.238-10.273
					c-0.441-1.552-1.065-3.249-0.382-4.71c0.496-1.061,1.563-1.71,2.431-2.495c1.954-1.767,2.991-4.401,3.164-7.029
					c0.174-2.629-0.453-5.258-1.415-7.71c-0.529-1.35-1.17-2.828-0.681-4.193c0.345-0.966,1.187-1.649,1.937-2.348
					c1.585-1.479,2.903-3.244,3.872-5.183c0.687-1.375,1.194-3.031,0.529-4.417c-0.802-1.673-2.911-2.198-4.761-2.339
					c-4.412-0.336-9.294,0.638-12.101,4.058c-2.518,3.067-2.807,7.336-2.986,11.3c-0.561,12.488-1.115,25.095,1.044,37.407"/>
				<g>
					<path style="fill:#263238;" d="M397.215,124.635c-0.548,0.471-1.318,0.642-1.906,1.035c-0.595,0.383-1.023,0.862-1.609,1.401
						c-0.287,0.275-0.6,0.584-0.877,0.905c-0.074,0.081-0.121,0.159-0.205,0.246l-0.314,0.316c-0.252,0.239-0.51,0.484-0.774,0.734
						c-0.594,0.535-1.338,1.189-2.388,1.882c-1.025,0.681-2.451,1.427-4.146,1.81c-3.353,0.747-6.296,0.008-8.455-1.032
						c-2.225-1.085-3.654-2.478-4.639-3.724c-1.9-2.529-2.191-4.576-1.319-5.688c0.898-1.146,3.072-0.955,5.535-0.35
						c1.217,0.275,2.521,0.609,3.646,0.723c1.161,0.141,2.23,0.088,2.9-0.08c0.308-0.067,0.711-0.189,1.35-0.481
						c0.621-0.277,1.404-0.693,2.303-1.118c0.449-0.212,0.925-0.426,1.435-0.624c0.247-0.098,0.516-0.193,0.775-0.281
						c0.282-0.092,0.594-0.196,0.884-0.267c1.176-0.297,2.295-0.373,3.339-0.273c2.087,0.176,3.875,1.225,4.562,2.378
						C398.023,123.305,397.742,124.194,397.215,124.635z"/>
				</g>
				<g>
					<path style="fill:#455A64;" d="M340.882,186.295c-0.007,0.006-0.061-0.048-0.162-0.159c-0.094-0.116-0.262-0.269-0.421-0.514
						c-0.352-0.465-0.802-1.224-1.125-2.296c-0.313-1.068-0.493-2.465-0.199-4.04c0.279-1.568,1.172-3.285,2.699-4.6
						c1.484-1.357,3.438-2.373,5.231-3.793c0.886-0.719,1.734-1.565,2.353-2.594c0.626-1.02,0.946-2.257,0.75-3.5
						c-0.336-2.514-2.415-4.725-2.593-7.746c-0.181-2.928,1.473-6.062,4.298-7.439c1.342-0.725,2.755-1.244,3.813-2.178
						c1.087-0.905,1.564-2.306,1.521-3.668c-0.03-1.372-0.462-2.704-1.025-3.916c-0.579-1.214-1.283-2.359-1.878-3.533
						c-0.597-1.171-1.095-2.394-1.264-3.663c-0.172-1.269,0.014-2.533,0.452-3.642c0.871-2.238,2.547-3.847,4.234-4.899
						c1.723-1.052,3.509-1.506,5.062-1.761c1.563-0.248,2.926-0.27,4.031-0.26c1.107,0.018,1.964,0.077,2.544,0.127
						c0.263,0.026,0.479,0.048,0.659,0.066c0.148,0.018,0.224,0.032,0.223,0.041c-0.001,0.019-0.307,0.014-0.888-0.002
						c-0.581-0.016-1.437-0.042-2.538-0.028c-1.099,0.021-2.45,0.073-3.983,0.344c-1.522,0.276-3.268,0.752-4.915,1.787
						c-1.621,1.036-3.22,2.612-4.025,4.74c-0.406,1.055-0.569,2.237-0.402,3.426c0.167,1.191,0.646,2.36,1.238,3.507
						c0.59,1.152,1.297,2.288,1.9,3.54c0.587,1.255,1.047,2.638,1.085,4.117c0.06,1.46-0.483,3.069-1.687,4.067
						c-1.165,1.021-2.612,1.541-3.909,2.248c-2.662,1.294-4.192,4.215-4.037,6.954c0.126,2.783,2.173,4.99,2.559,7.705
						c0.209,1.353-0.158,2.727-0.833,3.803c-0.667,1.092-1.557,1.961-2.474,2.694c-1.861,1.446-3.801,2.428-5.257,3.732
						c-1.494,1.26-2.356,2.869-2.658,4.383c-0.311,1.516-0.167,2.877,0.109,3.927C339.966,185.394,340.966,186.251,340.882,186.295z
						"/>
				</g>
				<g>
					<path style="fill:#455A64;" d="M403.078,184.155c-0.057-0.049,0.661-0.204,0.961-1.22c0.134-0.485,0.154-1.147-0.125-1.808
						c-0.283-0.657-0.892-1.267-1.659-1.78c-0.766-0.527-1.719-0.948-2.662-1.599c-0.922-0.619-1.91-1.635-2.019-3.019
						c-0.12-1.356,0.473-2.686,1.262-3.821c0.807-1.151,1.842-2.123,2.643-3.29c0.827-1.144,1.223-2.499,1.017-3.795
						c-0.18-1.298-0.828-2.453-1.53-3.455c-1.433-2.01-3.221-3.458-4.357-5.016c-1.185-1.512-1.793-3.011-1.911-4.088
						c-0.056-0.538-0.036-0.958,0.008-1.237c0.048-0.279,0.081-0.422,0.099-0.419c0.057,0.005-0.075,0.594,0.093,1.626
						c0.176,1.028,0.805,2.439,2,3.891c1.139,1.491,2.944,2.896,4.457,4.964c0.736,1.03,1.437,2.237,1.645,3.662
						c0.106,0.706,0.066,1.45-0.122,2.167c-0.192,0.718-0.551,1.386-0.971,1.995c-0.842,1.222-1.89,2.202-2.653,3.287
						c-0.761,1.077-1.298,2.311-1.202,3.486c0.079,1.19,0.913,2.094,1.791,2.711c0.883,0.635,1.836,1.081,2.622,1.649
						c0.788,0.557,1.428,1.225,1.719,1.973c0.282,0.748,0.224,1.46,0.048,1.979c-0.185,0.526-0.505,0.85-0.751,0.998
						C403.237,184.151,403.078,184.155,403.078,184.155z"/>
				</g>
				<g>
					<path style="fill:#455A64;" d="M397.968,120.082c0.018,0,0.03,0.119,0.037,0.348c0.002,0.228-0.019,0.567-0.101,0.996
						c-0.167,0.846-0.617,2.098-1.731,3.235c-1.079,1.139-2.963,2.034-5.078,1.833c-1.046-0.088-2.138-0.424-3.094-1.075
						c-0.955-0.65-1.722-1.55-2.479-2.436c-0.753-0.897-1.522-1.704-2.413-2.315c-0.88-0.622-1.836-1.063-2.779-1.365
						c-1.9-0.597-3.75-0.54-5.211-0.188c-1.474,0.342-2.572,0.934-3.288,1.384c-0.716,0.46-1.076,0.773-1.105,0.74
						c-0.019-0.02,0.295-0.386,0.99-0.907c0.696-0.511,1.798-1.173,3.314-1.574c1.501-0.412,3.442-0.514,5.44,0.086
						c0.992,0.303,2,0.757,2.93,1.405c0.941,0.635,1.766,1.499,2.517,2.395c0.76,0.891,1.496,1.751,2.372,2.354
						c0.871,0.602,1.878,0.924,2.849,1.018c1.969,0.21,3.723-0.576,4.776-1.617c1.085-1.04,1.571-2.214,1.792-3.019
						C397.925,120.562,397.919,120.08,397.968,120.082z"/>
				</g>
				<g>
					<path style="fill:#263238;" d="M376.293,133.413c-0.152,0.418-1.688,0.22-3.493,0.438c-1.809,0.181-3.265,0.71-3.504,0.334
						c-0.107-0.179,0.147-0.573,0.735-0.978c0.583-0.404,1.514-0.789,2.598-0.909c1.083-0.118,2.076,0.054,2.733,0.321
						C376.024,132.886,376.358,133.215,376.293,133.413z"/>
				</g>
				<g>
					<path style="fill:#263238;" d="M390.452,134.703c-0.271,0.349-1.33-0.013-2.605-0.03c-1.274-0.062-2.353,0.235-2.602-0.131
						c-0.109-0.178,0.061-0.528,0.533-0.858c0.465-0.33,1.242-0.599,2.118-0.573c0.875,0.028,1.634,0.344,2.078,0.702
						C390.423,134.173,390.571,134.533,390.452,134.703z"/>
				</g>
			</g>
			<g>
				<g>
					<g>
						<g>
							<g>
								<g>
									<g>
										<path style="fill:#E8505B;" d="M346.905,239.318c0.536,0.928-3.416-12.374-3.416-12.374l-3.309,12.158l-24.55,0.183
											c0,0,13.874-45.346,20.463-51.676c8.599-8.261,24.718-8.714,24.718-8.714l9.647,8.234l15.245-7.83
											c0,0,0.193,0.018,0.551,0.061c10.157,1.229,18.998,7.529,23.578,16.678l16.529,42.831h-21.825l-4.654-12.639l1.552,12.639
											"/>
									</g>
								</g>
							</g>
						</g>
					</g>
				</g>
				<path style="fill:#FAFAFA;" d="M352.962,179.884l22.115,50.313l11.178-50.837c0,0-3.098-0.18-7.525-0.346
					c-2.45-0.092-5.308,9.593-8.271,9.542c-1.895-0.032-3.831-9.823-5.734-9.816c-2.41,0.008-4.764,0.054-6.904,0.155
					C356.013,178.981,354.368,179.749,352.962,179.884z"/>
				<path style="fill:#FAFAFA;" d="M357.158,180.349v-4.619c0,0,13.185,0.176,13.409,10.727c0,0,1.871-10.397,12.512-10.727
					l0.682,3.538l-3.002,12.133l-7.677,5.113h-10.352l-4.284-5.632L357.158,180.349z"/>
				<g>
					<path style="fill:#263238;" d="M374.931,231.539c-0.017-0.005,0.029-0.198,0.132-0.564c0.12-0.359,0.292-0.896,0.636-1.538
						c0.341-0.64,0.859-1.377,1.563-2.127c0.698-0.756,1.536-1.557,2.391-2.51c1.695-1.922,3.903-4.108,5.498-7.084
						c0.789-1.479,1.333-3.188,1.414-5.007c0.095-1.803-0.351-3.735-1.53-5.24l-0.354-0.452l0.579,0.031
						c0.213,0.011,0.443,0.007,0.672-0.029c0.92-0.151,1.731-0.737,2.305-1.465c0.587-0.734,0.922-1.612,1.052-2.524
						c0.266-1.831-0.129-3.646-0.407-5.365c-0.571-3.432-1.087-6.533-1.524-9.162c-0.407-2.56-0.74-4.655-0.983-6.185
						c-0.098-0.686-0.178-1.244-0.241-1.686c-0.049-0.386-0.067-0.591-0.049-0.594c0.018-0.003,0.07,0.195,0.153,0.576
						c0.088,0.437,0.2,0.99,0.338,1.669c0.283,1.522,0.672,3.608,1.146,6.156c0.469,2.624,1.022,5.718,1.634,9.143
						c0.285,1.71,0.712,3.558,0.438,5.523c-0.132,0.97-0.504,1.964-1.15,2.769c-0.633,0.803-1.54,1.477-2.629,1.658
						c-0.27,0.043-0.543,0.048-0.796,0.034l0.225-0.421c1.275,1.629,1.736,3.698,1.629,5.586c-0.091,1.904-0.676,3.689-1.501,5.207
						c-1.671,3.051-3.926,5.218-5.65,7.107c-0.882,0.947-1.744,1.735-2.45,2.461c-0.714,0.72-1.237,1.415-1.598,2.027
						C375.171,230.772,374.986,231.559,374.931,231.539z"/>
				</g>
				<g>
					<path style="fill:#263238;" d="M374.928,231.105c-0.014,0.011-0.156-0.147-0.413-0.456c-0.292-0.352-0.663-0.8-1.12-1.353
						c-0.979-1.17-2.434-2.827-4.264-4.852c-1.82-2.032-4.028-4.428-6.228-7.31c-1.081-1.439-2.266-2.961-3.088-4.799
						c-0.81-1.814-1.181-4.052-0.372-6.11c0.11-0.276,0.247-0.539,0.385-0.777l0.137,0.38c-1.967-0.709-3.663-1.945-4.928-3.428
						c-1.287-1.47-2.206-3.139-2.838-4.8c-1.279-3.35-1.345-6.621-1.225-9.261c0.146-2.66,0.506-4.778,0.751-6.236
						c0.127-0.683,0.23-1.237,0.311-1.674c0.078-0.381,0.128-0.58,0.145-0.577c0.017,0.003,0.002,0.207-0.043,0.593
						c-0.056,0.441-0.128,0.999-0.216,1.687c-0.184,1.464-0.488,3.585-0.585,6.221c-0.073,2.617,0.037,5.83,1.306,9.074
						c0.627,1.612,1.53,3.226,2.776,4.636c1.225,1.425,2.848,2.597,4.718,3.271l0.295,0.106l-0.158,0.274
						c-0.124,0.215-0.248,0.453-0.348,0.704c-0.738,1.867-0.413,3.977,0.357,5.709c0.779,1.762,1.933,3.271,3.004,4.716
						c2.16,2.874,4.335,5.291,6.121,7.355c1.796,2.056,3.214,3.757,4.146,4.968c0.464,0.608,0.819,1.083,1.046,1.416
						C374.829,230.916,374.943,231.095,374.928,231.105z"/>
				</g>
				<g>
					<path style="fill:#263238;" d="M374.686,239.207c-0.143-0.011-0.208-2.027-0.143-4.503c0.064-2.477,0.233-4.487,0.377-4.49
						c0.144-0.003,0.208,2.013,0.143,4.504C374.998,237.207,374.829,239.217,374.686,239.207z"/>
				</g>
				<g>
					<path style="fill:#263238;" d="M342.853,229.941c-0.036-0.012,0.127-0.627,0.429-1.733c0.289-1.11,0.704-2.717,1.105-4.725
						c0.808-4.009,1.512-9.661,1.202-15.902c-0.162-3.115-0.467-6.088-1.176-8.684c-0.687-2.602-1.816-4.788-3.108-6.351
						c-1.28-1.58-2.654-2.538-3.649-3.078c-1.006-0.532-1.623-0.706-1.608-0.753c0.005-0.017,0.161,0.016,0.455,0.096
						c0.293,0.082,0.718,0.232,1.244,0.476c1.043,0.494,2.489,1.431,3.841,3.023c1.364,1.573,2.562,3.812,3.288,6.459
						c0.749,2.646,1.071,5.649,1.234,8.787c0.312,6.295-0.457,11.992-1.362,16.003c-0.45,2.01-0.921,3.61-1.271,4.706
						c-0.177,0.548-0.332,0.967-0.436,1.251C342.934,229.801,342.87,229.947,342.853,229.941z"/>
				</g>
				<g>
					<path style="fill:#263238;" d="M400.074,221.789c-0.036-0.001-0.06-0.596-0.073-1.671c-0.008-1.074-0.036-2.629-0.104-4.547
						c-0.125-3.836-0.474-9.133-1.311-14.928c-1.282-9.146-3.459-16.718-4.206-19.453l-0.071-0.26l0.206,0.164
						c0.678,0.54,1.004,0.82,0.986,0.844c-0.018,0.024-0.379-0.208-1.09-0.705l0.135-0.096c0.94,2.675,3.268,10.243,4.556,19.431
						c0.841,5.819,1.133,11.144,1.164,14.993c0.02,1.925-0.008,3.483-0.062,4.558C400.154,221.196,400.11,221.79,400.074,221.789z"
						/>
				</g>
				<g>
					<path style="fill:#263238;" d="M368.117,180.483c0.004,0.045-0.25,0.029-0.59,0.263c-0.346,0.227-0.707,0.722-1.051,1.418
						c-0.717,1.368-1.512,3.413-1.749,5.832l-0.065,0.656l-0.401-0.528c-0.232-0.307-0.477-0.629-0.726-0.957
						c-1.667-2.17-3.303-4.032-4.514-5.356c-1.212-1.324-1.987-2.124-1.934-2.179c0.046-0.049,0.912,0.658,2.2,1.924
						c1.286,1.266,2.981,3.106,4.662,5.294c0.249,0.331,0.495,0.658,0.729,0.967l-0.465,0.127c0.262-2.503,1.146-4.595,1.961-5.948
						c0.389-0.685,0.835-1.211,1.258-1.412C367.854,180.373,368.127,180.464,368.117,180.483z"/>
				</g>
				<g>
					<path style="fill:#263238;" d="M383.593,179.486c0.056,0.046-0.624,0.982-1.768,2.459c-1.144,1.477-2.752,3.495-4.553,5.703
						c-0.326,0.398-0.646,0.789-0.952,1.163l-0.445,0.543l-0.012-0.7c-0.022-1.247-0.058-2.41-0.25-3.43
						c-0.182-1.022-0.528-1.884-0.938-2.535c-0.825-1.318-1.775-1.693-1.723-1.766c0.011-0.025,0.25,0.035,0.636,0.263
						c0.383,0.226,0.902,0.647,1.371,1.314c0.473,0.661,0.881,1.572,1.1,2.635c0.231,1.063,0.287,2.26,0.319,3.507l-0.457-0.157
						c0.305-0.375,0.623-0.767,0.948-1.167c1.801-2.208,3.454-4.189,4.671-5.607C382.757,180.295,383.537,179.44,383.593,179.486z"
						/>
				</g>
				<g>
					<path style="fill:#263238;" d="M374.495,229.036c-0.036,0.003-0.122-0.59-0.249-1.666c-0.124-1.166-0.287-2.704-0.485-4.563
						c-0.387-3.855-0.886-9.185-1.404-15.074c-0.519-5.891-0.959-11.226-1.252-15.089c-0.131-1.865-0.238-3.408-0.32-4.577
						c-0.064-1.082-0.082-1.681-0.047-1.684c0.036-0.003,0.122,0.591,0.249,1.668c0.124,1.166,0.287,2.704,0.485,4.563
						c0.387,3.855,0.885,9.184,1.404,15.074c0.518,5.888,0.959,11.221,1.252,15.084c0.13,1.866,0.238,3.409,0.32,4.578
						C374.512,228.433,374.531,229.033,374.495,229.036z"/>
				</g>
				<g>
					<path style="fill:#263238;" d="M374.518,195.528c-0.047-0.049,0.369-0.296,0.909,0.061c0.244,0.171,0.511,0.488,0.518,0.947
						c0.015,0.469-0.367,0.915-0.831,1.056c-0.458,0.16-1.03,0.024-1.294-0.363c-0.265-0.375-0.236-0.789-0.14-1.071
						c0.225-0.607,0.707-0.653,0.698-0.585c0.035,0.071-0.272,0.228-0.343,0.68c-0.034,0.215,0,0.494,0.163,0.681
						c0.152,0.189,0.454,0.258,0.754,0.163c0.298-0.1,0.502-0.333,0.513-0.576c0.021-0.247-0.116-0.492-0.27-0.646
						C374.872,195.551,374.532,195.605,374.518,195.528z"/>
				</g>
				<g>
					<path style="fill:#263238;" d="M376.442,207.956c-0.038-0.058,0.434-0.219,0.892,0.261c0.204,0.225,0.399,0.604,0.293,1.063
						c-0.1,0.471-0.6,0.813-1.094,0.824c-0.493,0.033-1.022-0.263-1.164-0.724c-0.145-0.448,0.015-0.842,0.198-1.085
						c0.414-0.518,0.898-0.399,0.865-0.339c0.01,0.078-0.342,0.123-0.558,0.541c-0.102,0.197-0.159,0.482-0.057,0.713
						c0.09,0.231,0.369,0.385,0.691,0.373c0.322-0.017,0.586-0.195,0.655-0.433c0.081-0.239-0.001-0.517-0.12-0.705
						C376.794,208.048,376.439,208.035,376.442,207.956z"/>
				</g>
				<g style="opacity:0.3;">
					<path d="M351.702,180.477c-1.87,6.657-3.645,14.182-0.164,20.156c1.048,1.799,2.522,3.33,3.507,5.165
						c1.691,3.15,1.797,6.888,2.844,10.306c2.115,6.905,9.653,13.626,16.798,14.68c-3.689-4.496-9.4-10.34-12.799-15.435
						c-1.054-1.58-1.914-2.653-2.336-4.504c-0.422-1.852-0.734-3.818,0.499-5.262c-4.775-0.741-7.496-5.686-8.364-10.44
						c-0.868-4.754-0.511-9.687,0.597-14.391"/>
				</g>
				<g style="opacity:0.3;">
					<path d="M400.268,215.848c-1.185,7.139-0.385,16.501,3.991,22.265c1.61-7.839,0.806-18.096-3.965-24.521"/>
				</g>
			</g>
		</g>
	</g>
</g>
<g id="Character_1">
	<g>
		<rect x="165.87" y="128.297" style="fill:#F5F5F5;" width="117.54" height="196.376"/>
		<g>
			<polygon style="fill:#E8505B;" points="197.054,243.937 198.313,246.489 201.13,246.898 199.092,248.885 199.573,251.69 
				197.054,250.366 194.535,251.69 195.016,248.885 192.978,246.898 195.794,246.489 			"/>
			<polygon style="fill:#E8505B;" points="211.049,243.937 212.309,246.489 215.125,246.898 213.087,248.885 213.568,251.69 
				211.049,250.366 208.53,251.69 209.011,248.885 206.973,246.898 209.789,246.489 			"/>
			<polygon style="fill:#E8505B;" points="225.044,243.937 226.304,246.489 229.12,246.898 227.082,248.885 227.563,251.69 
				225.044,250.366 222.525,251.69 223.006,248.885 220.968,246.898 223.785,246.489 			"/>
			<polygon style="fill:#E8505B;" points="239.039,243.937 240.299,246.489 243.116,246.898 241.078,248.885 241.559,251.69 
				239.039,250.366 236.52,251.69 237.001,248.885 234.963,246.898 237.78,246.489 			"/>
			<polygon style="fill:#E8505B;" points="253.035,243.937 254.294,246.489 257.111,246.898 255.073,248.885 255.554,251.69 
				253.035,250.366 250.516,251.69 250.997,248.885 248.959,246.898 251.775,246.489 			"/>
		</g>
		<g>
			<g>
				<path style="fill:#E8505B;" d="M219.843,266.956c0,0.144-8.923,0.26-19.929,0.26c-11.009,0-19.931-0.117-19.931-0.26
					c0-0.144,8.922-0.26,19.931-0.26C210.919,266.695,219.843,266.812,219.843,266.956z"/>
			</g>
			<g>
				<path style="fill:#263238;" d="M269.93,275.61c0,0.144-19.902,0.26-44.447,0.26c-24.553,0-44.451-0.117-44.451-0.26
					s19.898-0.26,44.451-0.26C250.028,275.349,269.93,275.466,269.93,275.61z"/>
			</g>
			<g>
				<path style="fill:#263238;" d="M269.93,283.045c0,0.144-19.902,0.26-44.447,0.26c-24.553,0-44.451-0.117-44.451-0.26
					s19.898-0.26,44.451-0.26C250.028,282.785,269.93,282.901,269.93,283.045z"/>
			</g>
			<g>
				<path style="fill:#263238;" d="M269.93,290.48c0,0.144-19.902,0.26-44.447,0.26c-24.553,0-44.451-0.117-44.451-0.26
					c0-0.144,19.898-0.26,44.451-0.26C250.028,290.22,269.93,290.337,269.93,290.48z"/>
			</g>
			<g>
				<path style="fill:#263238;" d="M269.93,297.916c0,0.144-19.902,0.26-44.447,0.26c-24.553,0-44.451-0.117-44.451-0.26
					c0-0.144,19.898-0.26,44.451-0.26C250.028,297.656,269.93,297.772,269.93,297.916z"/>
			</g>
			<g>
				<path style="fill:#263238;" d="M269.93,305.351c0,0.144-19.902,0.26-44.447,0.26c-24.553,0-44.451-0.117-44.451-0.26
					c0-0.144,19.898-0.26,44.451-0.26C250.028,305.091,269.93,305.208,269.93,305.351z"/>
			</g>
		</g>
		<g>
			<rect x="173.418" y="138.267" style="fill:#E0E0E0;" width="101.25" height="97.203"/>
			<g>
				<g>
					<path style="fill:#263238;" d="M230.261,186.44c0.024,2.528,0.229,4.019,0.253,6.547c0.006,0.632,0.052,1.353,0.545,1.749
						c0.415,0.334,1.034,0.31,1.511,0.074c0.478-0.236,0.843-0.647,1.179-1.06c2.794-3.424,4.512-7.714,4.853-12.12
						c0.03-0.381,0.036-0.805-0.214-1.095c-0.396-0.459-1.137-0.287-1.691-0.041C233.981,181.702,231.681,183.827,230.261,186.44"/>
					<g>
						<g>
							<g>
								<g>
									<path style="fill:#FFBE9D;" d="M213.261,156.198l0.05,2.525l0.507,37.794c0.059,4.387,3.878,7.831,8.576,7.732h0
										c4.744-0.1,8.598-3.772,8.611-8.205c0.014-4.653,0.114-9.551,0.114-9.551s5.994-0.995,7.236-8.816
										c0.618-3.889,0.422-10.266,0.094-15.479c-0.296-4.692-4.434-8.194-9.109-7.699L213.261,156.198z"/>
								</g>
								<g>
									<g>
										<path style="fill:#263238;" d="M235.44,166.637c0.019,0.53-0.414,0.982-0.967,1.012c-0.552,0.03-1.015-0.375-1.034-0.904
											c-0.019-0.53,0.414-0.983,0.966-1.013C234.958,165.703,235.421,166.108,235.44,166.637z"/>
									</g>
									<g>
										<g>
											<path style="fill:#263238;" d="M237.066,165.514c-0.124,0.131-0.884-0.431-1.964-0.429
												c-1.078-0.013-1.87,0.543-1.987,0.41c-0.058-0.059,0.069-0.294,0.414-0.546c0.339-0.25,0.919-0.493,1.591-0.49
												c0.672,0.004,1.238,0.251,1.563,0.505C237.015,165.219,237.128,165.456,237.066,165.514z"/>
										</g>
									</g>
								</g>
								<g>
									<g>
										<path style="fill:#263238;" d="M225.044,166.637c0.019,0.53-0.414,0.982-0.967,1.012c-0.552,0.03-1.015-0.375-1.034-0.904
											c-0.019-0.53,0.414-0.983,0.966-1.013C224.562,165.703,225.025,166.108,225.044,166.637z"/>
									</g>
									<g>
										<g>
											<path style="fill:#263238;" d="M226.457,165.716c-0.124,0.131-0.885-0.431-1.964-0.429
												c-1.078-0.013-1.87,0.543-1.988,0.41c-0.057-0.059,0.068-0.294,0.414-0.546c0.339-0.25,0.918-0.493,1.591-0.49
												c0.672,0.004,1.238,0.251,1.563,0.505C226.405,165.421,226.518,165.657,226.457,165.716z"/>
										</g>
									</g>
								</g>
								<g>
									<g>
										<path style="fill:#263238;" d="M230.374,173.72c-0.005-0.061,0.666-0.177,1.753-0.316
											c0.275-0.028,0.536-0.083,0.583-0.271c0.065-0.199-0.051-0.496-0.184-0.817c-0.259-0.667-0.53-1.366-0.815-2.099
											c-1.132-2.988-1.951-5.445-1.831-5.489c0.121-0.044,1.136,2.341,2.268,5.329c0.272,0.737,0.533,1.439,0.781,2.111
											c0.104,0.313,0.284,0.668,0.143,1.082c-0.074,0.206-0.277,0.355-0.453,0.403c-0.177,0.054-0.332,0.057-0.468,0.065
											C231.057,173.777,230.378,173.781,230.374,173.72z"/>
									</g>
								</g>
								<g>
									<path style="fill:#EB996E;" d="M231.12,186.492c0,0-5.261,0.339-10.474-2.794c0,0,2.541,5.372,10.368,4.641L231.12,186.492
										z"/>
								</g>
								<g>
									<path style="fill:#EB996E;" d="M229.918,176.321c-0.388-0.513-1.068-0.795-1.743-0.722
										c-0.468,0.05-0.942,0.276-1.226,0.658c-0.285,0.381-0.344,0.923-0.086,1.286c0.291,0.41,0.9,0.504,1.415,0.358
										c0.515-0.146,0.958-0.485,1.379-0.823c0.117-0.094,0.236-0.191,0.308-0.319c0.073-0.128,0.088-0.296-0.002-0.402"/>
								</g>
								<g>
									<g>
										<path style="fill:#263238;" d="M227.198,174.467c0.176-0.01,0.178,1.161,1.18,1.993c1.001,0.834,2.25,0.703,2.259,0.866
											c0.016,0.074-0.278,0.228-0.805,0.242c-0.517,0.018-1.272-0.148-1.886-0.657c-0.612-0.51-0.875-1.19-0.915-1.671
											C226.987,174.75,227.118,174.46,227.198,174.467z"/>
									</g>
								</g>
							</g>
						</g>
					</g>
					<path style="fill:#263238;" d="M224.975,155.549c0.828,0.182,1.478,0.824,1.977,1.509c0.499,0.685,0.902,1.447,1.494,2.054
						c1.328,1.362,3.584,1.703,5.256,0.796c0.633,0.608,1.462,1.265,2.293,0.983c0.486-0.165,0.825-0.64,0.923-1.143
						c0.098-0.504-0.017-1.029-0.219-1.5c-0.818-1.904-2.926-2.924-4.959-3.323c-2.473-0.485-5.078-0.283-7.447,0.579"/>
				</g>
				<g>
					<g>
						<g>
							<g>
								<g>
									<g>
										<path style="fill:#263238;" d="M206.118,235.786c0.376,0.651-2.396-8.681-2.396-8.681l-2.321,8.53l-17.224,0.128
											c0,0,9.734-31.813,14.356-36.254c6.033-5.796,17.342-6.113,17.342-6.113l17.464,0.283c0,0,0.136,0.012,0.387,0.043
											c7.126,0.862,13.329,5.282,16.542,11.701l11.596,30.049h-15.312l-3.265-8.867l1.089,8.867"/>
									</g>
								</g>
							</g>
						</g>
					</g>
				</g>
				<g>
					<path style="fill:#E8505B;" d="M241.23,192.649c-0.533-1.255-2.447-1.21-3.292-2.28c-0.924-1.169-0.106-2.844,0.58-4.166
						c3.311-6.383,2.978-13.975,2.375-21.141c-0.258-3.068-0.571-6.206-1.901-8.983c-2.651-5.536-9.062-9.921-17.041-9.564
						c-6.49,0.253-11.426,6.108-14.94,11.57c-3.515,5.462-5.378,14.046-4.227,20.438c0.576,3.2,4.027,5.667,3.397,8.857
						c-0.397,2.01-2.503,4.422-2.091,6.429c0.563,2.741,4.542,3.695,6.87,5.247c2.396,1.597,4.389,3.715,6.492,5.682
						c2.104,1.967,4.403,3.834,7.13,4.758c2.727,0.924,5.976,0.75,8.201-1.078c3.629-2.981,3.279-8.928,6.581-12.269
						C240.357,195.144,241.783,193.95,241.23,192.649z M236.108,158.069c1.333,2.008,1.441,4.593,1.753,6.983
						c0.527,4.039,0.809,8.155,0.138,12.173c-0.67,4.017-2.363,7.96-5.312,10.769c-2.949,2.809-7.255,4.334-11.219,3.396
						c-4.451-1.054-5.882-4.955-7.139-9.353c-1.257-4.398,1.547-8.392,2.801-12.791c0.965-3.387,1.329-8.169,3.515-10.929
						c2.186-2.76,5.827-2.945,6.895-2.9C227.541,155.417,233.439,154.045,236.108,158.069z"/>
					<g style="opacity:0.3;">
						<path d="M204.529,190.578c2.642,1.435,4.709,3.704,6.858,5.807c2.149,2.102,4.542,4.136,7.452,4.89
							c2.91,0.754,6.448-0.143,7.903-2.774c-8.25,1.402-17.134-3.796-19.952-11.676"/>
					</g>
					<g style="opacity:0.3;">
						<path d="M237.505,188.712c-0.534,2.078-1.996,3.899-3.91,4.87c-0.436,0.221-0.902,0.406-1.258,0.74
							c-0.357,0.334-0.581,0.872-0.383,1.319c0.222,0.503,0.889,0.674,1.416,0.518c0.527-0.156,0.944-0.551,1.339-0.932
							c1.436-1.388,2.943-2.899,3.347-4.855"/>
					</g>
				</g>
			</g>
		</g>
	</g>
</g>
<g id="Arrows">
	<g>
		<g>
			
				<ellipse transform="matrix(0.2312 -0.9729 0.9729 0.2312 226.6803 752.1201)" style="fill:#E0E0E0;" cx="589.24" cy="232.629" rx="14.65" ry="14.65"/>
			<g>
				<path style="fill:#263238;" d="M587.017,238.869c-0.045-0.055,0.744-0.778,2.058-1.904c1.314-1.126,3.154-2.656,5.211-4.325
					l-0.007,0.399c-0.032-0.028-0.068-0.058-0.103-0.089c-2.025-1.757-3.838-3.37-5.133-4.557c-1.296-1.187-2.073-1.948-2.026-2.002
					c0.047-0.054,0.91,0.609,2.267,1.724c1.357,1.116,3.209,2.684,5.233,4.442c0.035,0.031,0.07,0.061,0.103,0.089l0.234,0.204
					l-0.241,0.195c-2.059,1.668-3.935,3.152-5.309,4.205C587.932,238.302,587.062,238.924,587.017,238.869z"/>
			</g>
		</g>
		<g>
			
				<ellipse transform="matrix(0.2298 -0.9732 0.9732 0.2298 -104.1266 333.6888)" style="fill:#E0E0E0;" cx="158.753" cy="232.629" rx="14.65" ry="14.65"/>
			<g>
				<path style="fill:#263238;" d="M160.977,226.39c0.045,0.055-0.744,0.778-2.058,1.904c-1.314,1.126-3.154,2.656-5.211,4.325
					l0.007-0.399c0.032,0.028,0.067,0.059,0.103,0.089c2.024,1.757,3.838,3.37,5.133,4.557c1.296,1.187,2.073,1.948,2.026,2.003
					c-0.047,0.054-0.91-0.609-2.268-1.724c-1.357-1.116-3.209-2.684-5.233-4.442c-0.035-0.031-0.07-0.061-0.103-0.089l-0.234-0.204
					l0.241-0.195c2.059-1.668,3.935-3.152,5.309-4.205C160.062,226.956,160.932,226.334,160.977,226.39z"/>
			</g>
		</g>
	</g>
</g>
<g id="Magnifying_glass">
	<g>
		<path style="fill:#455A64;" d="M318.548,89.251c-26.518,14.086-45.965,37.655-54.756,66.365
			c-18.15,59.267,15.306,122.253,74.573,140.403l0.001,0c36.37,11.137,74.122,2.818,102.071-18.95l94.734,118.504l14.492-11.584
			l-95.532-119.503c11.001-11.962,19.57-26.493,24.637-43.041c1.198-3.913,2.178-7.854,2.943-11.817
			c4.847-25.11,1.013-50.924-11.152-73.83c-14.085-26.518-37.654-45.964-66.364-54.755
			C375.484,72.251,345.067,75.167,318.548,89.251z M398.762,98.784c23.972,7.341,43.652,23.577,55.412,45.72
			c11.761,22.141,14.202,47.532,6.854,71.511c-15.153,49.488-67.743,77.421-117.23,62.266
			c-49.487-15.154-77.42-67.726-62.266-117.232c7.34-23.971,23.577-43.651,45.719-55.412
			C349.393,93.877,374.789,91.442,398.762,98.784z"/>
	</g>
</g>
</svg>
